<svg id="Layer_1" enable-background="new 0 0 512 512" height="512" viewBox="0 0 512 512" width="512" xmlns="http://www.w3.org/2000/svg"><g><g><g><g><g><g id="XMLID_1281_"><g id="XMLID_1282_"><g id="XMLID_1283_"><g id="XMLID_1284_"><g id="XMLID_1285_"><g id="XMLID_1286_"><g id="XMLID_1287_"><g id="XMLID_1288_"><g id="XMLID_1289_"><g id="XMLID_1290_"><g id="XMLID_1321_"><g id="XMLID_1322_"><g id="XMLID_1323_"><g id="XMLID_1324_"><g><path d="m512 256c0 61.51-21.7 117.96-57.86 162.1-22.34 27.28-156.29-21.809-198.14-21.809s-174.04 50.509-196.01 24.379c-37.44-44.51-59.99-101.96-59.99-164.67 0-141.38 114.62-256 256-256s256 114.62 256 256z" fill="#ff6326"/></g></g></g></g></g></g></g></g></g></g></g></g></g></g></g></g></g></g></g><path d="m454.14 418.1c36.16-44.14 57.86-100.59 57.86-162.1 0-12.669-.936-25.119-2.713-37.295l-168.887-168.887-135.376 95.511-121.446 282.811c46.028 1.045 138.644-31.849 172.422-31.849 41.85 0 175.8 49.089 198.14 21.809z" fill="#ff1f3d"/><g><path d="m175.128 192.582c-12.774-4.139-28.21 8.186-34.477 27.529-4.299 13.269-3.166 26.392 2.093 34.662-9.11 3.615-17.724 13.579-22.023 26.848-6.267 19.342-.992 38.378 11.782 42.517s28.21-8.186 34.477-27.529c4.299-13.269 3.166-26.392-2.093-34.662 9.109-3.615 17.723-13.58 22.023-26.848 6.267-19.342.992-38.378-11.782-42.517z" fill="#f4b94e"/><path d="m391.279 281.622c-4.299-13.269-12.913-23.234-22.023-26.848 5.259-8.27 6.392-21.393 2.093-34.662-6.267-19.342-21.703-31.668-34.477-27.529s-18.049 23.174-11.782 42.517c4.299 13.269 12.913 23.234 22.023 26.848-5.259 8.27-6.392 21.393-2.093 34.662 6.267 19.342 21.703 31.668 34.477 27.529s18.049-23.175 11.782-42.517z" fill="#ff8659"/></g><g><path d="m73.357 419.57h76.021v-109.454h-22.428c-29.599 0-53.593 23.994-53.593 53.593z" fill="#ffd4a6"/><path d="m438.64 419.57h-76.021v-109.454h22.428c29.599 0 53.593 23.994 53.593 53.593z" fill="#ffbb7d"/></g><path d="m201.155 237.013h109.691v116.327h-109.691z" fill="#ffbb7d"/><path d="m256 237.016h54.845v116.327h-54.845z" fill="#efa36a"/><path d="m355.534 449.506h-199.071l32.43-139.398h136.342z" fill="#ffd4a6"/><path d="m325.235 310.108 30.302 139.394h-99.538v-139.394z" fill="#ffbb7d"/><path d="m173.208 368.86h162.178v69.665h-162.178z" fill="#fff"/><path d="m256 368.86h79.39v69.67h-79.39z" fill="#e5e5e5"/><g><g><path d="m155.21 368.86v115.28h-15.45c-30.69-15.66-57.8-37.34-79.77-63.47v-12.85c0-21.52 17.44-38.96 38.95-38.96z" fill="#fff"/><path d="m454.14 407.82v10.28c-22.34 27.28-50.21 49.87-81.9 66.04h-13.33v-115.28h56.27c21.52 0 38.96 17.44 38.96 38.96z" fill="#e5e5e5"/></g><path d="m378.91 310.12v170.49c-36.48 20.01-78.37 31.39-122.91 31.39-43.68 0-84.8-10.94-120.78-30.24v-171.64h53.67v83.01c0 18.43 14.94 33.37 33.37 33.37h69.61c18.43 0 33.36-14.94 33.36-33.37v-83.01z" fill="#c8ffff"/><path d="m378.91 310.12v170.49c-36.48 20.01-78.37 31.39-122.91 31.39v-85.5h35.87c18.43 0 33.36-14.94 33.36-33.37v-83.01z" fill="#9ddff6"/></g><g><path d="m347.305 126.494c-3.857-58.558-51.224-80.2-91.305-80.2s-87.448 21.641-91.305 80.2c-10.365 2.004-17.727 15.599-16.568 26.591l1.777 25.014c1.216 11.543 11.362 19.969 22.544 18.715l1.929-.209c22.903 61.503 58.823 67.916 81.623 71.516 22.8-3.601 58.72-10.013 81.624-71.517l1.929.209c11.181 1.254 21.328-7.172 22.544-18.715l1.776-25.014c1.159-10.991-6.203-24.585-16.568-26.59z" fill="#ffd4a6"/><path d="m363.873 153.085-1.776 25.014c-1.216 11.543-11.362 19.969-22.544 18.715l-1.929-.209c-7.828 20.995-17.166 35.578-26.98 45.809-18.924 19.741-39.624 23.332-54.644 25.707v-221.826c40.081 0 87.448 21.641 91.305 80.2 10.365 2.004 17.727 15.598 16.568 26.59z" fill="#ffbb7d"/><path d="m255.991 21.792c-116.324-9.413-111 108.334-111 108.334 85.932 20.446 110.587-38.867 111-40.298.413 1.432 25.067 60.744 110.999 40.298.001 0 5.325-117.747-110.999-108.334z" fill="#f4b94e"/><path d="m366.992 130.125c-85.395 20.309-110.277-38.12-110.991-40.261v-68.076c116.31-9.401 110.991 108.337 110.991 108.337z" fill="#ff8659"/></g></g></svg>