<svg id="Layer_1" enable-background="new 0 0 512 512" height="512" viewBox="0 0 512 512" width="512" xmlns="http://www.w3.org/2000/svg"><g><g><g><g id="XMLID_830_"><g id="XMLID_831_"><g id="XMLID_832_"><g id="XMLID_833_"><g id="XMLID_834_"><g id="XMLID_835_"><g id="XMLID_836_"><g id="XMLID_837_"><g id="XMLID_838_"><g id="XMLID_839_"><g id="XMLID_840_"><g id="XMLID_841_"><g id="XMLID_842_"><g id="XMLID_843_"><path id="XMLID_844_" d="m0 256c0-141.385 114.615-256 256-256s256 114.615 256 256c0 61.764-21.873 118.42-58.296 162.643 0 0-118.083 18.357-197.704 18.357-79.529 0-197.542-18.16-197.542-18.16-36.52-44.252-58.458-100.984-58.458-162.84z" fill="#fd9827"/></g></g></g></g></g></g></g></g></g></g></g></g></g></g></g></g><path d="m453.704 418.643c36.423-44.223 58.296-100.879 58.296-162.643 0-19.007-2.089-37.523-6.019-55.349l-145.004-144.985c-.046-.052-218.928 165.703-218.928 165.703l38.86 40.473c7.924 14.022 24.473 24.788 33.341 33.409l25.417 100.083-181.367 23.306c.056.068.115.134.172.202.586.09 118.197 18.158 197.528 18.158 79.621 0 197.704-18.357 197.704-18.357z" fill="#ea7b0c"/><g><path d="m313.57 278.78v85.9l-58.82 107.57-56.79-88.14v-105.33z" fill="#ffc48a"/><path d="m313.57 278.78v85.9l-58.82 107.57v-193.47z" fill="#ffaf78"/><path d="m183.245 338.99h145.04v80.01h-145.04z" fill="#ffdaae"/><path d="m254.749 338.99h73.535v80.01h-73.535z" fill="#ffc48a"/></g><path d="m453.7 397.34v21.3c-14 17-30.16 32.16-48.04 45.05-.5.38-1 .73-1.5 1.09-10.74 7.65-22.11 14.48-34 20.41-1.44.73-2.9 1.44-4.36 2.13-33.27 15.82-70.5 24.68-109.8 24.68s-76.53-8.86-109.8-24.68c-1.46-.69-2.92-1.4-4.36-2.13-11.89-5.93-23.26-12.76-34-20.41-.5-.36-1-.71-1.5-1.09-17.88-12.89-34.04-28.05-48.04-45.05v-21.3c0-.7.01-1.4.04-2.09 1.09-31.55 27.67-56.26 59.25-56.26h80.37v9.64c0 31.96 25.91 57.87 57.88 57.87 31.96 0 57.87-25.91 57.87-57.87v-9.64h80.7c31.58 0 58.16 24.71 59.25 56.26.03.69.04 1.39.04 2.09z" fill="#776d6b"/><path d="m365.8 487.32c1.46-.69 2.92-1.4 4.36-2.13 11.89-5.93 23.26-12.76 34-20.41.5-.36 1-.71 1.5-1.09 17.88-12.89 34.04-28.05 48.04-45.05v-21.3c0-.7-.01-1.4-.04-2.09-1.09-31.55-27.67-56.26-59.25-56.26h-80.7v9.64c0 31.96-25.91 57.87-57.87 57.87-.366 0-.726-.021-1.09-.028v105.51c.418.002.832.018 1.25.018 39.3 0 76.53-8.86 109.8-24.68z" fill="#605553"/><path d="m141.84 406.1v79.09c-11.89-5.93-23.26-12.76-34-20.41-.5-.36-1-.71-1.5-1.09v-57.59z" fill="#e00f5a"/><path d="m405.66 406.1v57.59c-.5.38-1 .73-1.5 1.09-10.74 7.65-22.11 14.48-34 20.41v-79.09z" fill="#b70042"/><g><path d="m359.306 148.439c-4.412-64.937-58.612-88.939-104.475-88.939-45.862 0-100.063 24.002-104.475 88.939-11.867 2.223-20.29 17.296-18.969 29.492l2.044 27.741c1.386 12.801 12.994 22.14 25.795 20.754l2.204-.239c26.205 68.21 67.313 75.324 93.401 79.313 26.087-3.99 67.196-11.103 93.401-79.313l2.204.239c12.801 1.387 24.409-7.953 25.795-20.754l2.043-27.741c1.321-12.196-7.101-27.269-18.968-29.492z" fill="#ffdaae"/><g><path d="m359.224 148.439c11.867 2.223 20.29 17.296 18.969 29.492l-2.043 27.741c-1.386 12.801-12.994 22.14-25.795 20.754l-2.204-.239c-26.205 68.21-67.313 75.324-93.401 79.313v-246c45.862 0 100.062 24.002 104.474 88.939z" fill="#ffc48a"/></g></g><g><g><g><path d="m141.84 406.1v79.09c-11.89-5.93-23.26-12.76-34-20.41-.5-.36-1-.71-1.5-1.09v-57.59z" fill="#605553"/><path d="m405.66 406.1v57.59c-.5.38-1 .73-1.5 1.09-10.74 7.65-22.11 14.48-34 20.41v-79.09z" fill="#4c403f"/></g></g><path d="m360.843 55.505c-29.52-33.08-87.037-31.73-101.914-30.775-1.952.125-3.906.125-5.857 0-14.878-.955-72.395-2.306-101.914 30.775-28.212 31.614-18.841 92.833 2.741 135.995h20.553l11.694-55.007c2.027-9.536 11.554-15.494 21.015-13.142 32.072 7.972 65.608 7.972 97.68 0 9.461-2.352 18.988 3.606 21.015 13.142l11.694 55.007h20.553c21.581-43.162 30.952-104.381 2.74-135.995z" fill="#605553"/><path d="m358.1 191.5h-20.55l-11.69-55.01c-1.73-8.12-8.91-13.65-16.85-13.65-1.38 0-2.77.16-4.17.51-16.04 3.99-32.44 5.98-48.84 5.98-.42 0-.83 0-1.25-.01v-104.51c1.4.04 2.79.01 4.18-.08 14.88-.95 72.39-2.31 101.91 30.77 28.22 31.62 18.84 92.84-2.74 136z" fill="#4c403f"/><g><path d="m273.683 216.812h-37.865c-14.079 0-25.599 11.519-25.599 25.599h.068c.679 7.099 6.655 12.651 13.931 12.651 2.925 0 5.635-.902 7.878-2.438 1.381-.946 3.218-.946 4.599 0 2.243 1.536 4.953 2.438 7.877 2.438 2.925 0 5.635-.902 7.878-2.438 1.381-.946 3.218-.946 4.599 0 2.243 1.536 4.953 2.438 7.878 2.438s5.635-.902 7.878-2.438c1.381-.946 3.218-.946 4.599 0 2.243 1.536 4.953 2.438 7.878 2.438 7.276 0 13.252-5.553 13.931-12.651h.068c0-14.08-11.519-25.599-25.598-25.599z" fill="#605553"/><path d="m299.281 242.411h-.064c-.682 7.104-6.656 12.65-13.94 12.65-2.923 0-5.632-.896-7.872-2.432-1.387-.949-3.221-.949-4.597 0-2.25 1.536-4.96 2.432-7.882 2.432s-5.632-.896-7.872-2.432c-.693-.48-1.493-.715-2.304-.715v-35.102h18.932c7.04 0 13.44 2.88 18.079 7.52 4.64 4.639 7.52 11.039 7.52 18.079z" fill="#4c403f"/></g></g></g></svg>